<svg xmlns="http://www.w3.org/2000/svg" width="270" height="270" viewBox="0 0 270 270"><circle fill="#00B422" cx="135" cy="135" r="135"/><path fill="#FFF" d="M85.5 123c2.8 0 5-2.2 5-5s-2.2-5-5-5-5 2.2-5 5 2.2 5 5 5zm5.8 3.4H67.6v-1.5c0-3 3-3.1 4.6-3.1 1.8 0 2.6.2 2.6.2v-8.3s-1.6-.2-3.8-.2c-5 0-14.1 1.3-14.1 11.7v1.3h-4.4v7.6h4.3v16.2h-4v7.6h19.5v-7.6h-4.7v-16.2h13v16.2h-4v7.6h18.8v-7.6h-4v-23.9zm39.2.6h-16.7v7.5h2.8l-3.6 11.2c-.7 1.9-.9 4.1-.9 4.1h-.2s-.2-2.2-.9-4.1l-3.6-11.2h2.8V127H93.5v7.5H97l8.8 23.5h12.5l8.7-23.5h3.5V127zm31 14.2c0-8.8-5.2-15.2-14.6-15.2-10.2 0-16.4 7.2-16.4 16.5 0 8.4 6 16.5 17.3 16.5 8.5 0 13.5-4.4 13.5-4.4l-3.8-7.3s-4.2 3-8.8 3c-3.4 0-6.5-1.8-7.3-5.8h20c-.1-.1.1-2.2.1-3.3zm-20-2.6c.6-2.5 2-4.7 5.1-4.7 2.3 0 4 2.1 4 4.7h-9.1zm65-4.8h-.1s.1-.6.1-1.6v-1.6c0-2.9-1.5-4-4.3-4h-9.7v7.6h2.9c.8 0 1.3.5 1.3 1.3v14.8h-4.2v7.7h18.6v-7.6h-4.2v-4.6c0-5.7 2.7-9.5 8.5-9.5 1.3 0 2.1.2 2.1.2v-10.4s-.6-.1-1.2-.1c-4.6 0-8.4 3.5-9.8 7.8zm-27 0h-.1s.1-.6.1-1.6v-1.6c0-2.9-1.5-4-4.3-4h-9.7v7.6h2.9c.8 0 1.3.5 1.3 1.3v14.8h-4.2v7.7h18.6v-7.6h-4.2v-4.6c0-5.7 2.7-9.5 8.5-9.5 1.2 0 2.1.2 2.1.2v-10.4s-.6-.1-1.2-.1c-4.6 0-8.4 3.5-9.8 7.8z"/></svg>